<svg xmlns="http://www.w3.org/2000/svg" width="1516" height="808" viewBox="0 0 1516 808" font-family="DejaVu Sans Mono, ui-monospace, Menlo, Consolas, monospace">
<rect x="0" y="0" width="1516" height="808" fill="#ffffff" />
<rect x="407" y="41" width="143" height="148" fill="#ffffff" />
<rect x="550" y="41" width="141" height="148" fill="#ffffff" />
<rect x="691" y="41" width="116" height="148" fill="#ffffff" />
<rect x="807" y="41" width="116" height="148" fill="#ffffff" />
<rect x="923" y="41" width="115" height="148" fill="#ffffff" />
<rect x="1038" y="41" width="118" height="148" fill="#ffffff" />
<rect x="1156" y="41" width="232" height="148" fill="#ffffff" />
<rect x="270" y="189" width="137" height="133" fill="#ffffff" />
<rect x="103" y="322" width="304" height="439" fill="#eef0f2" />
<rect x="407" y="322" width="147" height="67" fill="#f4f4f4" />
<rect x="407" y="389" width="61" height="112" fill="#eef0f2" />
<rect x="468" y="424" width="44" height="77" fill="#eef0f2" />
<rect x="512" y="476" width="42" height="25" fill="#f4f4f4" />
<rect x="554" y="415" width="37" height="86" fill="#eef0f2" />
<rect x="554" y="243" width="141" height="138" fill="#ffffff" />
<rect x="591" y="381" width="104" height="120" fill="#ffffff" />
<rect x="695" y="244" width="461" height="257" fill="#f4f4f4" />
<rect x="1156" y="244" width="309" height="257" fill="#f4f4f4" />
<line x1="407" y1="41" x2="691" y2="41" stroke="#111111" stroke-width="5" />
<line x1="269" y1="189" x2="691" y2="189" stroke="#111111" stroke-width="5" />
<line x1="691" y1="189" x2="1388" y2="189" stroke="#111111" stroke-width="3" stroke-dasharray="9 7" />
<line x1="1388" y1="189" x2="1465" y2="189" stroke="#111111" stroke-width="5" />
<line x1="407" y1="41" x2="407" y2="189" stroke="#111111" stroke-width="5" />
<line x1="550" y1="41" x2="550" y2="189" stroke="#111111" stroke-width="5" />
<line x1="691" y1="41" x2="691" y2="189" stroke="#111111" stroke-width="3" stroke-dasharray="9 7" />
<line x1="807" y1="41" x2="807" y2="189" stroke="#111111" stroke-width="3" stroke-dasharray="9 7" />
<line x1="923" y1="41" x2="923" y2="189" stroke="#111111" stroke-width="3" stroke-dasharray="9 7" />
<line x1="1038" y1="41" x2="1038" y2="189" stroke="#111111" stroke-width="3" stroke-dasharray="9 7" />
<line x1="1156" y1="41" x2="1156" y2="189" stroke="#111111" stroke-width="3" stroke-dasharray="9 7" />
<line x1="270" y1="189" x2="270" y2="322" stroke="#111111" stroke-width="5" />
<line x1="407" y1="189" x2="407" y2="322" stroke="#111111" stroke-width="5" />
<line x1="270" y1="322" x2="407" y2="322" stroke="#111111" stroke-width="5" />
<line x1="103" y1="322" x2="103" y2="761" stroke="#111111" stroke-width="5" />
<line x1="103" y1="761" x2="407" y2="761" stroke="#111111" stroke-width="5" />
<line x1="407" y1="322" x2="407" y2="761" stroke="#111111" stroke-width="5" />
<line x1="407" y1="322" x2="554" y2="322" stroke="#111111" stroke-width="5" />
<line x1="407" y1="389" x2="512" y2="389" stroke="#111111" stroke-width="5" />
<line x1="407" y1="501" x2="556" y2="501" stroke="#111111" stroke-width="5" />
<line x1="468" y1="424" x2="468" y2="501" stroke="#111111" stroke-width="5" />
<line x1="468" y1="424" x2="512" y2="424" stroke="#111111" stroke-width="5" />
<line x1="512" y1="389" x2="512" y2="501" stroke="#111111" stroke-width="5" />
<line x1="512" y1="476" x2="554" y2="476" stroke="#111111" stroke-width="5" />
<line x1="554" y1="415" x2="591" y2="415" stroke="#111111" stroke-width="5" />
<line x1="554" y1="415" x2="554" y2="501" stroke="#111111" stroke-width="5" />
<line x1="591" y1="381" x2="591" y2="501" stroke="#111111" stroke-width="5" />
<line x1="554" y1="243" x2="554" y2="381" stroke="#111111" stroke-width="5" />
<line x1="554" y1="243" x2="695" y2="243" stroke="#111111" stroke-width="5" />
<line x1="591" y1="381" x2="695" y2="381" stroke="#111111" stroke-width="5" />
<line x1="591" y1="501" x2="695" y2="501" stroke="#111111" stroke-width="5" />
<line x1="695" y1="243" x2="695" y2="501" stroke="#111111" stroke-width="5" />
<line x1="695" y1="244" x2="1465" y2="244" stroke="#111111" stroke-width="3" stroke-dasharray="9 7" />
<line x1="695" y1="501" x2="1465" y2="501" stroke="#111111" stroke-width="3" stroke-dasharray="9 7" />
<line x1="1156" y1="244" x2="1156" y2="501" stroke="#111111" stroke-width="3" stroke-dasharray="9 7" />
<line x1="691" y1="41" x2="1360" y2="41" stroke="#555555" stroke-width="2" />
<line x1="705" y1="36.5" x2="705" y2="45.5" stroke="#555555" stroke-width="2" />
<line x1="739" y1="36.5" x2="739" y2="45.5" stroke="#555555" stroke-width="2" />
<line x1="773" y1="36.5" x2="773" y2="45.5" stroke="#555555" stroke-width="2" />
<line x1="807" y1="36.5" x2="807" y2="45.5" stroke="#555555" stroke-width="2" />
<line x1="841" y1="36.5" x2="841" y2="45.5" stroke="#555555" stroke-width="2" />
<line x1="875" y1="36.5" x2="875" y2="45.5" stroke="#555555" stroke-width="2" />
<line x1="909" y1="36.5" x2="909" y2="45.5" stroke="#555555" stroke-width="2" />
<line x1="943" y1="36.5" x2="943" y2="45.5" stroke="#555555" stroke-width="2" />
<line x1="977" y1="36.5" x2="977" y2="45.5" stroke="#555555" stroke-width="2" />
<line x1="1011" y1="36.5" x2="1011" y2="45.5" stroke="#555555" stroke-width="2" />
<line x1="1045" y1="36.5" x2="1045" y2="45.5" stroke="#555555" stroke-width="2" />
<line x1="1079" y1="36.5" x2="1079" y2="45.5" stroke="#555555" stroke-width="2" />
<line x1="1113" y1="36.5" x2="1113" y2="45.5" stroke="#555555" stroke-width="2" />
<line x1="1147" y1="36.5" x2="1147" y2="45.5" stroke="#555555" stroke-width="2" />
<line x1="1181" y1="36.5" x2="1181" y2="45.5" stroke="#555555" stroke-width="2" />
<line x1="1215" y1="36.5" x2="1215" y2="45.5" stroke="#555555" stroke-width="2" />
<line x1="1249" y1="36.5" x2="1249" y2="45.5" stroke="#555555" stroke-width="2" />
<line x1="1283" y1="36.5" x2="1283" y2="45.5" stroke="#555555" stroke-width="2" />
<line x1="1317" y1="36.5" x2="1317" y2="45.5" stroke="#555555" stroke-width="2" />
<line x1="1351" y1="36.5" x2="1351" y2="45.5" stroke="#555555" stroke-width="2" />
<line x1="1360" y1="41" x2="1465" y2="146" stroke="#555555" stroke-width="2" />
<line x1="1373.08" y1="47.72" x2="1366.72" y2="54.08" stroke="#555555" stroke-width="2" />
<line x1="1397.12" y1="71.76" x2="1390.76" y2="78.12" stroke="#555555" stroke-width="2" />
<line x1="1421.16" y1="95.8" x2="1414.8" y2="102.16" stroke="#555555" stroke-width="2" />
<line x1="1445.21" y1="119.84" x2="1438.84" y2="126.21" stroke="#555555" stroke-width="2" />
<line x1="1465" y1="146" x2="1465" y2="501" stroke="#555555" stroke-width="2" />
<line x1="1469.5" y1="160" x2="1460.5" y2="160" stroke="#555555" stroke-width="2" />
<line x1="1469.5" y1="194" x2="1460.5" y2="194" stroke="#555555" stroke-width="2" />
<line x1="1469.5" y1="228" x2="1460.5" y2="228" stroke="#555555" stroke-width="2" />
<line x1="1469.5" y1="262" x2="1460.5" y2="262" stroke="#555555" stroke-width="2" />
<line x1="1469.5" y1="296" x2="1460.5" y2="296" stroke="#555555" stroke-width="2" />
<line x1="1469.5" y1="330" x2="1460.5" y2="330" stroke="#555555" stroke-width="2" />
<line x1="1469.5" y1="364" x2="1460.5" y2="364" stroke="#555555" stroke-width="2" />
<line x1="1469.5" y1="398" x2="1460.5" y2="398" stroke="#555555" stroke-width="2" />
<line x1="1469.5" y1="432" x2="1460.5" y2="432" stroke="#555555" stroke-width="2" />
<line x1="1469.5" y1="466" x2="1460.5" y2="466" stroke="#555555" stroke-width="2" />
<rect x="407" y="55" width="28" height="41" fill="#111111" />
<rect x="789" y="72" width="43" height="41" fill="#111111" />
<rect x="1334" y="54" width="48" height="46" fill="#111111" />
<line x1="44" y1="508" x2="103" y2="508" stroke="#111111" stroke-width="5" />
<line x1="44" y1="592" x2="103" y2="592" stroke="#111111" stroke-width="5" />
<line x1="44" y1="508" x2="44" y2="592" stroke="#111111" stroke-width="5" />
<line x1="103" y1="508" x2="103" y2="526" stroke="#111111" stroke-width="5" />
<line x1="103" y1="574" x2="103" y2="592" stroke="#111111" stroke-width="5" />
<text x="73.5" y="554" font-size="12" font-weight="400" fill="#555555" text-anchor="middle">Lift</text>
<line x1="44" y1="647" x2="103" y2="647" stroke="#111111" stroke-width="5" />
<line x1="44" y1="729" x2="103" y2="729" stroke="#111111" stroke-width="5" />
<line x1="44" y1="647" x2="44" y2="729" stroke="#111111" stroke-width="5" />
<line x1="103" y1="647" x2="103" y2="665" stroke="#111111" stroke-width="5" />
<line x1="103" y1="711" x2="103" y2="729" stroke="#111111" stroke-width="5" />
<text x="73.5" y="692" font-size="12" font-weight="400" fill="#555555" text-anchor="middle">Lift</text>
<line x1="407" y1="508" x2="464" y2="508" stroke="#111111" stroke-width="5" />
<line x1="407" y1="592" x2="464" y2="592" stroke="#111111" stroke-width="5" />
<line x1="464" y1="508" x2="464" y2="592" stroke="#111111" stroke-width="5" />
<line x1="407" y1="508" x2="407" y2="526" stroke="#111111" stroke-width="5" />
<line x1="407" y1="574" x2="407" y2="592" stroke="#111111" stroke-width="5" />
<text x="435.5" y="554" font-size="12" font-weight="400" fill="#555555" text-anchor="middle">Lift</text>
<line x1="407" y1="647" x2="464" y2="647" stroke="#111111" stroke-width="5" />
<line x1="407" y1="729" x2="464" y2="729" stroke="#111111" stroke-width="5" />
<line x1="464" y1="647" x2="464" y2="729" stroke="#111111" stroke-width="5" />
<line x1="407" y1="647" x2="407" y2="665" stroke="#111111" stroke-width="5" />
<line x1="407" y1="711" x2="407" y2="729" stroke="#111111" stroke-width="5" />
<text x="435.5" y="692" font-size="12" font-weight="400" fill="#555555" text-anchor="middle">Lift</text>
<rect x="416" y="184.5" width="52" height="9" fill="#ffffff" />
<rect x="590" y="184.5" width="52" height="9" fill="#ffffff" />
<rect x="364" y="184.5" width="46" height="9" fill="#ffffff" />
<rect x="297" y="317.5" width="82" height="9" fill="#ffffff" />
<rect x="561" y="238.5" width="46" height="9" fill="#ffffff" />
<rect x="690.5" y="427" width="9" height="42" fill="#ffffff" />
<rect x="419" y="384.5" width="36" height="9" fill="#ffffff" />
<rect x="474" y="419.5" width="32" height="9" fill="#ffffff" />
<rect x="557" y="410.5" width="30" height="9" fill="#ffffff" />
<rect x="720" y="184.5" width="36" height="9" fill="#ffffff" />
<rect x="844" y="184.5" width="36" height="9" fill="#ffffff" />
<rect x="1004" y="184.5" width="32" height="9" fill="#ffffff" />
<rect x="1046" y="184.5" width="32" height="9" fill="#ffffff" />
<rect x="1164" y="184.5" width="32" height="9" fill="#ffffff" />
<rect x="701" y="239.5" width="30" height="9" fill="#ffffff" />
<line x1="419" y1="189" x2="419" y2="143" stroke="#111111" stroke-width="2" />
<polyline points="419,143 424.15,143.29 429.24,144.15 434.19,145.58 438.96,147.56 443.47,150.05 447.68,153.04 451.53,156.47 454.96,160.32 457.95,164.53 460.44,169.04 462.42,173.81 463.85,178.76 464.71,183.85 465,189" fill="none" stroke="#111111" stroke-width="2" />
<line x1="593" y1="189" x2="593" y2="143" stroke="#111111" stroke-width="2" />
<polyline points="593,143 598.15,143.29 603.24,144.15 608.19,145.58 612.96,147.56 617.47,150.05 621.68,153.04 625.53,156.47 628.96,160.32 631.95,164.53 634.44,169.04 636.42,173.81 637.85,178.76 638.71,183.85 639,189" fill="none" stroke="#111111" stroke-width="2" />
<line x1="407" y1="189" x2="407" y2="229" stroke="#111111" stroke-width="2" />
<polyline points="407,229 402.52,228.75 398.1,228 393.79,226.76 389.64,225.04 385.72,222.87 382.06,220.27 378.72,217.28 375.73,213.94 373.13,210.28 370.96,206.36 369.24,202.21 368,197.9 367.25,193.48 367,189" fill="none" stroke="#111111" stroke-width="2" />
<line x1="300" y1="322" x2="300" y2="360" stroke="#111111" stroke-width="2" />
<polyline points="300,360 304.25,359.76 308.46,359.05 312.55,357.87 316.49,356.24 320.22,354.18 323.69,351.71 326.87,348.87 329.71,345.69 332.18,342.22 334.24,338.49 335.87,334.55 337.05,330.46 337.76,326.25 338,322" fill="none" stroke="#111111" stroke-width="2" />
<line x1="376" y1="322" x2="376" y2="360" stroke="#111111" stroke-width="2" />
<polyline points="376,360 371.75,359.76 367.54,359.05 363.45,357.87 359.51,356.24 355.78,354.18 352.31,351.71 349.13,348.87 346.29,345.69 343.82,342.22 341.76,338.49 340.13,334.55 338.95,330.46 338.24,326.25 338,322" fill="none" stroke="#111111" stroke-width="2" />
<line x1="564" y1="243" x2="564" y2="283" stroke="#111111" stroke-width="2" />
<polyline points="564,283 568.48,282.75 572.9,282 577.21,280.76 581.36,279.04 585.28,276.87 588.94,274.27 592.28,271.28 595.27,267.94 597.87,264.28 600.04,260.36 601.76,256.21 603,251.9 603.75,247.48 604,243" fill="none" stroke="#111111" stroke-width="2" />
<line x1="695" y1="466" x2="731" y2="466" stroke="#111111" stroke-width="2" />
<polyline points="731,466 730.77,461.97 730.1,457.99 728.98,454.11 727.43,450.38 725.48,446.85 723.15,443.55 720.46,440.54 717.45,437.85 714.15,435.52 710.62,433.57 706.89,432.02 703.01,430.9 699.03,430.23 695,430" fill="none" stroke="#111111" stroke-width="2" />
<line x1="422" y1="389" x2="422" y2="419" stroke="#111111" stroke-width="2" />
<polyline points="422,419 425.36,418.81 428.68,418.25 431.91,417.32 435.02,416.03 437.96,414.4 440.7,412.45 443.21,410.21 445.45,407.7 447.4,404.96 449.03,402.02 450.32,398.91 451.25,395.68 451.81,392.36 452,389" fill="none" stroke="#111111" stroke-width="2" />
<line x1="477" y1="424" x2="477" y2="450" stroke="#111111" stroke-width="2" />
<polyline points="477,450 479.91,449.84 482.79,449.35 485.59,448.54 488.28,447.43 490.83,446.01 493.21,444.33 495.38,442.38 497.33,440.21 499.01,437.83 500.43,435.28 501.54,432.59 502.35,429.79 502.84,426.91 503,424" fill="none" stroke="#111111" stroke-width="2" />
<line x1="560" y1="415" x2="560" y2="439" stroke="#111111" stroke-width="2" />
<polyline points="560,439 562.69,438.85 565.34,438.4 567.93,437.65 570.41,436.62 572.77,435.32 574.96,433.76 576.97,431.97 578.76,429.96 580.32,427.77 581.62,425.41 582.65,422.93 583.4,420.34 583.85,417.69 584,415" fill="none" stroke="#111111" stroke-width="2" />
<line x1="723" y1="184.5" x2="723" y2="193.5" stroke="#111111" stroke-width="2" />
<line x1="753" y1="184.5" x2="753" y2="193.5" stroke="#111111" stroke-width="2" />
<line x1="847" y1="184.5" x2="847" y2="193.5" stroke="#111111" stroke-width="2" />
<line x1="877" y1="184.5" x2="877" y2="193.5" stroke="#111111" stroke-width="2" />
<line x1="1007" y1="184.5" x2="1007" y2="193.5" stroke="#111111" stroke-width="2" />
<line x1="1033" y1="184.5" x2="1033" y2="193.5" stroke="#111111" stroke-width="2" />
<line x1="1049" y1="184.5" x2="1049" y2="193.5" stroke="#111111" stroke-width="2" />
<line x1="1075" y1="184.5" x2="1075" y2="193.5" stroke="#111111" stroke-width="2" />
<line x1="1167" y1="184.5" x2="1167" y2="193.5" stroke="#111111" stroke-width="2" />
<line x1="1193" y1="184.5" x2="1193" y2="193.5" stroke="#111111" stroke-width="2" />
<line x1="704" y1="239.5" x2="704" y2="248.5" stroke="#111111" stroke-width="2" />
<line x1="728" y1="239.5" x2="728" y2="248.5" stroke="#111111" stroke-width="2" />
<text x="478.5" y="119.9" font-size="14" font-weight="500" fill="#111111" text-anchor="middle">Ruang Meeting 1</text>
<text x="620.5" y="119.9" font-size="14" font-weight="500" fill="#111111" text-anchor="middle">Ruangan HRGA</text>
<text x="749" y="118.85" font-size="11" font-weight="500" fill="#111111" text-anchor="middle">Bilik Komisaris</text>
<text x="865" y="112.35" font-size="11" font-weight="500" fill="#111111" text-anchor="middle">Bilik Product</text>
<text x="865" y="125.35" font-size="11" font-weight="500" fill="#111111" text-anchor="middle">Manager</text>
<text x="980.5" y="118.85" font-size="11" font-weight="500" fill="#111111" text-anchor="middle">Bilik IT</text>
<text x="1097" y="112.35" font-size="11" font-weight="500" fill="#111111" text-anchor="middle">Bilik Direktur</text>
<text x="1097" y="125.35" font-size="11" font-weight="500" fill="#111111" text-anchor="middle">Finance</text>
<text x="1272" y="119.9" font-size="14" font-weight="500" fill="#111111" text-anchor="middle">Bilik Geng Kami</text>
<text x="338.5" y="260.4" font-size="14" font-weight="500" fill="#111111" text-anchor="middle">Resepsionis</text>
<text x="255" y="546.4" font-size="14" font-weight="500" fill="#111111" text-anchor="middle">Lobby Besar</text>
<text x="480.5" y="360.4" font-size="14" font-weight="500" fill="#111111" text-anchor="middle">Pantry</text>
<text x="441.5" y="445" font-size="11" font-weight="500" fill="#111111" text-anchor="middle" transform="rotate(-90 441.5 445)">Gudang</text>
<text x="494" y="462.5" font-size="11" font-weight="500" fill="#111111" text-anchor="middle" transform="rotate(-90 494 462.5)">Toilet Wanita</text>
<text x="533" y="492.35" font-size="11" font-weight="500" fill="#111111" text-anchor="middle">Wastafel</text>
<text x="576.5" y="458" font-size="11" font-weight="500" fill="#111111" text-anchor="middle" transform="rotate(-90 576.5 458)">Toilet Pria</text>
<text x="624.5" y="316.9" font-size="14" font-weight="500" fill="#111111" text-anchor="middle">Ruang Meeting 2</text>
<text x="643" y="444.85" font-size="11" font-weight="500" fill="#111111" text-anchor="middle">Ruang Server</text>
<text x="925.5" y="377.4" font-size="14" font-weight="500" fill="#111111" text-anchor="middle">Desk Collection</text>
<text x="1310.5" y="377.4" font-size="14" font-weight="500" fill="#111111" text-anchor="middle">Tele / CS / CA</text>
<text x="471" y="181" font-size="11" font-weight="700" fill="#111111" text-anchor="start">D1</text>
<text x="645" y="181" font-size="11" font-weight="700" fill="#111111" text-anchor="start">D2</text>
<text x="413" y="181" font-size="11" font-weight="700" fill="#111111" text-anchor="start">D3</text>
<text x="382" y="314" font-size="11" font-weight="700" fill="#111111" text-anchor="start">D4</text>
<text x="610" y="235" font-size="11" font-weight="700" fill="#111111" text-anchor="start">D5</text>
<text x="703" y="424" font-size="11" font-weight="700" fill="#111111" text-anchor="start">D6</text>
<text x="458" y="381" font-size="11" font-weight="700" fill="#111111" text-anchor="start">D7</text>
<text x="509" y="416" font-size="11" font-weight="700" fill="#111111" text-anchor="start">D8</text>
<text x="590" y="407" font-size="11" font-weight="700" fill="#111111" text-anchor="start">D9</text>
<text x="759" y="181" font-size="11" font-weight="700" fill="#111111" text-anchor="start">C1</text>
<text x="883" y="181" font-size="11" font-weight="700" fill="#111111" text-anchor="start">C2</text>
<text x="1039" y="181" font-size="11" font-weight="700" fill="#111111" text-anchor="start">C3</text>
<text x="1081" y="181" font-size="11" font-weight="700" fill="#111111" text-anchor="start">C4</text>
<text x="1199" y="181" font-size="11" font-weight="700" fill="#111111" text-anchor="start">C5</text>
<text x="734" y="236" font-size="11" font-weight="700" fill="#111111" text-anchor="start">C6</text>
<text x="16" y="36" font-size="24" font-weight="700" fill="#111111" text-anchor="start">DENAH KANTOR</text>
<text x="16" y="62" font-size="12" font-weight="700" fill="#111111" text-anchor="start">TAHAP 1 — DINDING, SEKAT, PINTU/CELAH (TANPA FURNITURE)</text>
<text x="16" y="82" font-size="10" font-weight="400" fill="#555555" text-anchor="start">Koordinat memakai ruang piksel gambar sumber (1516 x 808).</text>
<text x="16" y="98" font-size="10" font-weight="400" fill="#555555" text-anchor="start">Tanpa furniture / hotspot / avatar.</text>
<rect x="700" y="610" width="344" height="194" fill="#ffffff" stroke="#111111" stroke-width="1" />
<text x="712" y="632" font-size="13" font-weight="700" fill="#111111" text-anchor="start">LEGENDA STRUKTUR</text>
<line x1="714" y1="654" x2="774" y2="654" stroke="#111111" stroke-width="5" />
<text x="786" y="658" font-size="12" font-weight="400" fill="#111111" text-anchor="start">Dinding penuh (solid)</text>
<line x1="714" y1="680" x2="774" y2="680" stroke="#111111" stroke-width="3" stroke-dasharray="9 7" />
<text x="786" y="684" font-size="12" font-weight="400" fill="#111111" text-anchor="start">Sekat 160 cm (putus-putus)</text>
<line x1="714" y1="696" x2="714" y2="716" stroke="#111111" stroke-width="2" />
<polyline points="714,728 716.46,727.86 718.9,727.45 721.27,726.77 723.55,725.82 725.7,724.63 727.72,723.2 729.56,721.56 731.2,719.72 732.63,717.7 733.82,715.55 734.77,713.27 735.45,710.9 735.86,708.46 736,706" fill="none" stroke="#111111" stroke-width="2" />
<text x="786" y="710" font-size="12" font-weight="400" fill="#111111" text-anchor="start">Pintu engsel + arah buka</text>
<line x1="714" y1="723" x2="714" y2="741" stroke="#111111" stroke-width="2" />
<line x1="752" y1="723" x2="752" y2="741" stroke="#111111" stroke-width="2" />
<text x="786" y="736" font-size="12" font-weight="400" fill="#111111" text-anchor="start">Celah pintu (tanpa daun)</text>
<line x1="714" y1="758" x2="774" y2="758" stroke="#555555" stroke-width="2" />
<line x1="744" y1="752" x2="744" y2="764" stroke="#555555" stroke-width="2" />
<text x="786" y="762" font-size="12" font-weight="400" fill="#111111" text-anchor="start">Jendela / tepi eksterior</text>
<rect x="714" y="774" width="22" height="20" fill="#111111" />
<text x="786" y="788" font-size="12" font-weight="400" fill="#111111" text-anchor="start">Kolom struktur (bukan furniture)</text>
<rect x="1060" y="610" width="440" height="194" fill="#ffffff" stroke="#111111" stroke-width="1" />
<text x="1072" y="632" font-size="12" font-weight="700" fill="#111111" text-anchor="start">CHECKLIST BUKAAN (mudah dikoreksi)</text>
<text x="1072" y="650" font-size="11" font-weight="700" fill="#111111" text-anchor="start">PINTU ENGSEL (D)</text>
<text x="1076" y="668" font-size="10" font-weight="400" fill="#111111" text-anchor="start">D1  Ruang Meeting 1</text>
<text x="1076" y="682" font-size="10" font-weight="400" fill="#111111" text-anchor="start">D2  Ruangan HRGA</text>
<text x="1076" y="696" font-size="10" font-weight="400" fill="#111111" text-anchor="start">D3  Resepsionis</text>
<text x="1076" y="710" font-size="10" font-weight="400" fill="#111111" text-anchor="start">D4  Resepsionis -&gt; Lobby Besar</text>
<text x="1076" y="724" font-size="10" font-weight="400" fill="#111111" text-anchor="start">D5  Ruang Meeting 2</text>
<text x="1076" y="738" font-size="10" font-weight="400" fill="#111111" text-anchor="start">D6  Ruang Server</text>
<text x="1076" y="752" font-size="10" font-weight="400" fill="#111111" text-anchor="start">D7  Gudang</text>
<text x="1076" y="766" font-size="10" font-weight="400" fill="#111111" text-anchor="start">D8  Toilet Wanita</text>
<text x="1076" y="780" font-size="10" font-weight="400" fill="#111111" text-anchor="start">D9  Toilet Pria</text>
<text x="1286" y="650" font-size="11" font-weight="700" fill="#111111" text-anchor="start">CELAH / GAP (C)</text>
<text x="1290" y="668" font-size="10" font-weight="400" fill="#111111" text-anchor="start">C1  Bilik Komisaris</text>
<text x="1290" y="682" font-size="10" font-weight="400" fill="#111111" text-anchor="start">C2  Bilik Product Manager</text>
<text x="1290" y="696" font-size="10" font-weight="400" fill="#111111" text-anchor="start">C3  Bilik IT (kanan)</text>
<text x="1290" y="710" font-size="10" font-weight="400" fill="#111111" text-anchor="start">C4  Bilik Direktur Finance (kiri)</text>
<text x="1290" y="724" font-size="10" font-weight="400" fill="#111111" text-anchor="start">C5  Bilik Geng Kami (kiri)</text>
<text x="1290" y="738" font-size="10" font-weight="400" fill="#111111" text-anchor="start">C6  Desk Collection (kiri-atas)</text>
</svg>
